<svg width="100" height="25" viewBox="0 0 100 25" fill="none" xmlns="http://www.w3.org/2000/svg">
<rect width="100" height="25" rx="5" fill="#007CE3"/>
<path d="M9.60723 18L13.0508 8.0275H15.7092L19.1596 18H16.9351L14.4213 10.2796H14.3387L11.818 18H9.60723ZM17.0315 14.0812V15.6997H11.7078V14.0812H17.0315ZM22.3552 18H20.2891V8.0275H22.3552V18ZM37.3278 15.7548H35.5715V6.7465H37.3278V15.7548ZM37.6721 19.0537H28.9324V17.635H37.6721V19.0537ZM30.7093 18.2135H28.9324V14.8526H30.7093V18.2135ZM30.4613 7.53851C31.0995 7.53851 31.6803 7.67396 32.2038 7.94485C32.7318 8.21115 33.145 8.58765 33.4434 9.07434C33.7419 9.55643 33.8911 10.0959 33.8911 10.6928C33.8911 11.308 33.7419 11.8567 33.4434 12.3388C33.145 12.8209 32.7318 13.1997 32.2038 13.4752C31.6803 13.7461 31.0995 13.8815 30.4613 13.8815C29.8231 13.8815 29.2423 13.7461 28.7189 13.4752C28.2001 13.1997 27.7891 12.8209 27.4861 12.3388C27.1831 11.8567 27.0316 11.308 27.0316 10.6928C27.0316 10.0959 27.1831 9.55643 27.4861 9.07434C27.7891 8.58765 28.2001 8.21115 28.7189 7.94485C29.2423 7.67396 29.8231 7.53851 30.4613 7.53851ZM30.4613 9.06745C30.1353 9.06286 29.8415 9.12714 29.5798 9.26029C29.3227 9.38885 29.1183 9.57709 28.9668 9.82503C28.8199 10.073 28.7464 10.3622 28.7464 10.6928C28.7464 11.0326 28.8199 11.3287 28.9668 11.5812C29.1183 11.8292 29.3227 12.0197 29.5798 12.1529C29.8415 12.2814 30.1353 12.3457 30.4613 12.3457C30.7827 12.3457 31.0697 12.2814 31.3222 12.1529C31.5793 12.0197 31.7814 11.8292 31.9283 11.5812C32.0752 11.3287 32.1487 11.0326 32.1487 10.6928C32.1487 10.3622 32.0752 10.073 31.9283 9.82503C31.7814 9.57709 31.5793 9.38885 31.3222 9.26029C31.0697 9.12714 30.7827 9.06286 30.4613 9.06745ZM49.9724 19.2672H48.2851V6.71895H49.9724V19.2672ZM48.8567 12.9931H46.7424V11.5675H48.8567V12.9931ZM47.2176 18.6887H45.5578V6.91179H47.2176V18.6887ZM42.6377 9.82503C42.6377 10.9178 42.5482 11.9141 42.3691 12.814C42.19 13.7139 41.8939 14.5151 41.4807 15.2176C41.072 15.9155 40.5303 16.4665 39.8553 16.8705L38.774 15.5206C39.3801 15.1717 39.8714 14.7103 40.2479 14.1363C40.629 13.5578 40.8999 12.9081 41.0606 12.1873C41.2258 11.4665 41.3085 10.679 41.3085 9.82503V8.66111H42.6377V9.82503ZM43.0165 9.82503C43.0165 10.6056 43.0991 11.331 43.2644 12.0013C43.4343 12.6671 43.7098 13.2686 44.0909 13.8058C44.472 14.3384 44.9655 14.7631 45.5716 15.0799L44.5592 16.416C43.8751 16.0533 43.3172 15.5436 42.8856 14.887C42.4586 14.2259 42.1487 13.4706 41.9559 12.6212C41.7676 11.7672 41.6735 10.8351 41.6735 9.82503V8.66111H43.0165V9.82503ZM44.938 9.43246H39.201V8.0275H44.938V9.43246ZM55.4546 8.53026C55.4546 9.37966 55.326 10.1694 55.0689 10.8994C54.8164 11.6294 54.4307 12.2654 53.9119 12.8071C53.393 13.3443 52.7502 13.7461 51.9835 14.0124L51.0399 12.635C51.7103 12.4054 52.2681 12.0817 52.7135 11.6639C53.1589 11.2415 53.4872 10.7617 53.6984 10.2245C53.9142 9.68729 54.0221 9.12254 54.0221 8.53026V7.39389H55.4546V8.53026ZM55.7852 8.70243C55.7852 9.22585 55.8885 9.72402 56.0951 10.1969C56.3063 10.6653 56.6254 11.0831 57.0524 11.4504C57.484 11.8131 58.0189 12.0955 58.6571 12.2975L57.7204 13.6611C56.9904 13.4132 56.3729 13.0459 55.8678 12.5592C55.3627 12.0725 54.9863 11.5009 54.7383 10.8443C54.4904 10.1832 54.3664 9.46919 54.3664 8.70243V7.39389H55.7852V8.70243ZM61.164 14.1639H59.4078V6.71895H61.164V14.1639ZM62.8582 11.1267H60.6681V9.65974H62.8582V11.1267ZM57.0524 14.4187C57.9156 14.4187 58.664 14.5151 59.2976 14.708C59.9358 14.8962 60.4248 15.1717 60.7645 15.5344C61.1089 15.8971 61.281 16.331 61.281 16.8361C61.281 17.3457 61.1089 17.7819 60.7645 18.1446C60.4248 18.5119 59.9381 18.7897 59.3045 18.978C58.6708 19.1708 57.9201 19.2672 57.0524 19.2672C56.18 19.2672 55.4201 19.1708 54.7728 18.978C54.1254 18.7897 53.6272 18.5119 53.2783 18.1446C52.9293 17.7819 52.7548 17.3457 52.7548 16.8361C52.7548 16.331 52.9293 15.8971 53.2783 15.5344C53.6272 15.1717 54.1254 14.8962 54.7728 14.708C55.4201 14.5151 56.18 14.4187 57.0524 14.4187ZM57.0524 15.7961C56.5106 15.7961 56.0492 15.8352 55.6681 15.9132C55.2916 15.9867 55.0069 16.1038 54.8141 16.2645C54.6212 16.4206 54.5248 16.6111 54.5248 16.8361C54.5248 17.0702 54.6212 17.2654 54.8141 17.4215C55.0069 17.5776 55.2893 17.6947 55.6612 17.7727C56.0377 17.8462 56.5014 17.8852 57.0524 17.8898C57.6079 17.8852 58.0694 17.8462 58.4367 17.7727C58.804 17.6947 59.0818 17.5776 59.27 17.4215C59.4583 17.2654 59.5524 17.0702 59.5524 16.8361C59.5524 16.6065 59.456 16.4137 59.2631 16.2576C59.0749 16.1015 58.7948 15.9867 58.4229 15.9132C58.051 15.8352 57.5942 15.7961 57.0524 15.7961ZM73.175 7.46964C73.175 8.54862 72.9524 9.522 72.507 10.3898C72.0616 11.253 71.412 11.9899 70.558 12.6005C69.704 13.2112 68.6617 13.6887 67.4312 14.033L66.7425 12.6625C67.7342 12.3916 68.5722 12.0404 69.2563 11.6088C69.9404 11.1726 70.4592 10.6744 70.8128 10.1143C71.1663 9.54954 71.3431 8.94348 71.3431 8.29609V7.46964H73.175ZM72.5483 8.86084H67.4174V7.46964H72.5483V8.86084ZM77.2384 13.7507H75.4891V6.7465H77.2384V13.7507ZM75.7233 11.1611H73.2577V9.72172H75.7233V11.1611ZM77.2384 19.1226H68.9326V14.2603H77.2384V19.1226ZM70.6475 17.7383H75.496V15.6308H70.6475V17.7383ZM82.5415 8.90904C82.5415 9.64826 82.4382 10.353 82.2316 11.0234C82.025 11.6937 81.7013 12.2906 81.2605 12.814C80.8243 13.3329 80.2756 13.7277 79.6145 13.9986L78.6847 12.6487C79.2495 12.4054 79.7155 12.084 80.0828 11.6845C80.4547 11.2805 80.7279 10.842 80.9024 10.3691C81.0814 9.89619 81.171 9.40951 81.171 8.90904V7.46276H82.5415V8.90904ZM82.8721 8.90904C82.8721 9.38655 82.9547 9.84569 83.12 10.2865C83.2853 10.7272 83.5424 11.1244 83.8914 11.4779C84.2449 11.8315 84.688 12.1161 85.2206 12.3319L84.2839 13.6749C83.6595 13.4178 83.1384 13.0505 82.7206 12.573C82.3027 12.0955 81.9928 11.5445 81.7908 10.9201C81.5934 10.2956 81.4947 9.6253 81.4947 8.90904V7.46276H82.8721V8.90904ZM89.6352 14.3361H87.9616V6.7465H89.6352V14.3361ZM88.4368 11.23H86.4051V9.79059H88.4368V11.23ZM86.9148 14.2741H85.2894V6.93934H86.9148V14.2741ZM89.6352 19.2672H87.8928V16.2989H80.9712V14.887H89.6352V19.2672Z" fill="white"/>
</svg>
