<svg width="25" height="31" viewBox="0 0 25 31" fill="none" xmlns="http://www.w3.org/2000/svg">
<path d="M11.5312 10.6562C11.5312 10.3993 11.4292 10.1529 11.2475 9.97124C11.0658 9.78956 10.8194 9.6875 10.5625 9.6875C10.3056 9.6875 10.0592 9.78956 9.87749 9.97124C9.69581 10.1529 9.59375 10.3993 9.59375 10.6562V11.8846L8.53006 11.2704C8.41985 11.2058 8.29794 11.1636 8.17136 11.1463C8.04478 11.129 7.91602 11.1369 7.79251 11.1696C7.66899 11.2022 7.55316 11.259 7.45167 11.3366C7.35018 11.4142 7.26505 11.5111 7.20117 11.6218C7.13729 11.7324 7.09592 11.8546 7.07945 11.9813C7.06299 12.108 7.07174 12.2367 7.10522 12.36C7.13869 12.4833 7.19622 12.5987 7.2745 12.6997C7.35277 12.8007 7.45025 12.8852 7.56131 12.9483L8.625 13.5625L7.56131 14.1767C7.45025 14.2398 7.35277 14.3243 7.2745 14.4253C7.19622 14.5263 7.13869 14.6417 7.10522 14.765C7.07174 14.8883 7.06299 15.017 7.07945 15.1437C7.09592 15.2704 7.13729 15.3926 7.20117 15.5032C7.26505 15.6139 7.35018 15.7108 7.45167 15.7884C7.55316 15.866 7.66899 15.9228 7.79251 15.9554C7.91602 15.9881 8.04478 15.996 8.17136 15.9787C8.29794 15.9614 8.41985 15.9192 8.53006 15.8546L9.59375 15.2404V16.4688C9.59375 16.7257 9.69581 16.9721 9.87749 17.1538C10.0592 17.3354 10.3056 17.4375 10.5625 17.4375C10.8194 17.4375 11.0658 17.3354 11.2475 17.1538C11.4292 16.9721 11.5312 16.7257 11.5312 16.4688V15.2404L12.5949 15.8546C12.7052 15.9192 12.8271 15.9614 12.9536 15.9787C13.0802 15.996 13.209 15.9881 13.3325 15.9554C13.456 15.9228 13.5718 15.866 13.6733 15.7884C13.7748 15.7108 13.86 15.6139 13.9238 15.5032C13.9877 15.3926 14.0291 15.2704 14.0455 15.1437C14.062 15.017 14.0533 14.8883 14.0198 14.765C13.9863 14.6417 13.9288 14.5263 13.8505 14.4253C13.7722 14.3243 13.6747 14.2398 13.5637 14.1767L12.5 13.5625L13.5637 12.9483C13.6747 12.8852 13.7722 12.8007 13.8505 12.6997C13.9288 12.5987 13.9863 12.4833 14.0198 12.36C14.0533 12.2367 14.062 12.108 14.0455 11.9813C14.0291 11.8546 13.9877 11.7324 13.9238 11.6218C13.86 11.5111 13.7748 11.4142 13.6733 11.3366C13.5718 11.259 13.456 11.2022 13.3325 11.1696C13.209 11.1369 13.0802 11.129 12.9536 11.1463C12.8271 11.1636 12.7052 11.2058 12.5949 11.2704L11.5312 11.8846V10.6562ZM7.65625 19.375C7.39932 19.375 7.15292 19.4771 6.97124 19.6587C6.78956 19.8404 6.6875 20.0868 6.6875 20.3438C6.6875 20.6007 6.78956 20.8471 6.97124 21.0288C7.15292 21.2104 7.39932 21.3125 7.65625 21.3125H17.3438C17.6007 21.3125 17.8471 21.2104 18.0288 21.0288C18.2104 20.8471 18.3125 20.6007 18.3125 20.3438C18.3125 20.0868 18.2104 19.8404 18.0288 19.6587C17.8471 19.4771 17.6007 19.375 17.3438 19.375H7.65625ZM7.65625 23.25C7.39932 23.25 7.15292 23.3521 6.97124 23.5337C6.78956 23.7154 6.6875 23.9618 6.6875 24.2188C6.6875 24.4757 6.78956 24.7221 6.97124 24.9038C7.15292 25.0854 7.39932 25.1875 7.65625 25.1875H17.3438C17.6007 25.1875 17.8471 25.0854 18.0288 24.9038C18.2104 24.7221 18.3125 24.4757 18.3125 24.2188C18.3125 23.9618 18.2104 23.7154 18.0288 23.5337C17.8471 23.3521 17.6007 23.25 17.3438 23.25H7.65625Z" fill="#5F6368"/>
<path d="M24.125 27.125V8.71875L15.4062 0H4.75C3.72229 0 2.73666 0.408258 2.00996 1.13496C1.28326 1.86166 0.875 2.84729 0.875 3.875V27.125C0.875 28.1527 1.28326 29.1383 2.00996 29.865C2.73666 30.5917 3.72229 31 4.75 31H20.25C21.2777 31 22.2633 30.5917 22.99 29.865C23.7167 29.1383 24.125 28.1527 24.125 27.125ZM15.4062 5.8125C15.4062 6.58329 15.7124 7.3225 16.2575 7.86753C16.8025 8.41256 17.5417 8.71875 18.3125 8.71875H22.1875V27.125C22.1875 27.6389 21.9834 28.1317 21.62 28.495C21.2567 28.8584 20.7639 29.0625 20.25 29.0625H4.75C4.23614 29.0625 3.74333 28.8584 3.37998 28.495C3.01663 28.1317 2.8125 27.6389 2.8125 27.125V3.875C2.8125 3.36114 3.01663 2.86833 3.37998 2.50498C3.74333 2.14163 4.23614 1.9375 4.75 1.9375H15.4062V5.8125Z" fill="#5F6368"/>
</svg>
