<svg width="104" height="30" viewBox="0 0 104 30" fill="none" xmlns="http://www.w3.org/2000/svg">
<path d="M19.88 28.72V1.9H22.94V28.72H19.88ZM10.61 18.94V21.91C11.79 21.91 13.1 21.85 14.54 21.73C15.98 21.61 17.27 21.46 18.41 21.28V23.71C17.65 23.83 16.77 23.94 15.77 24.04C14.77 24.14 13.72 24.22 12.62 24.28C11.5 24.36 10.36 24.42 9.2 24.46C8.04 24.5 6.92 24.51 5.84 24.49H0.05V22H4.7C5.1 22 5.52 22 5.96 22C6.4 22 6.85 21.99 7.31 21.97V18.97C5.91 18.69 4.73 18.07 3.77 17.11C2.83 16.15 2.37 14.98 2.39 13.6C2.37 12.8 2.53 12.06 2.87 11.38C3.21 10.7 3.68 10.12 4.28 9.64C4.86 9.16 5.54 8.78 6.32 8.5C7.1 8.22 7.93 8.08 8.81 8.08C9.69 8.08 10.53 8.22 11.33 8.5C12.13 8.78 12.84 9.16 13.46 9.64C14.06 10.12 14.54 10.7 14.9 11.38C15.26 12.06 15.45 12.8 15.47 13.6C15.45 14.96 14.97 16.12 14.03 17.08C13.11 18.02 11.97 18.64 10.61 18.94ZM16.49 7H1.22V4.51H7.31V0.969998H10.55V4.51H16.49V7ZM8.87 10.51C7.87 10.51 7.04 10.81 6.38 11.41C5.72 11.99 5.39 12.73 5.39 13.63C5.39 14.53 5.72 15.27 6.38 15.85C7.06 16.41 7.89 16.69 8.87 16.69C9.85 16.69 10.67 16.4 11.33 15.82C12.01 15.24 12.35 14.5 12.35 13.6C12.35 12.7 12.01 11.96 11.33 11.38C10.65 10.8 9.83 10.51 8.87 10.51ZM46.8617 20.5H40.7417V18.16H46.8617V1.87H49.9517V23.02H46.8617V20.5ZM42.0317 7.75C42.0317 8.57 41.8517 9.34 41.4917 10.06C41.1317 10.76 40.6517 11.37 40.0517 11.89C39.4317 12.43 38.7117 12.85 37.8917 13.15C37.0717 13.45 36.2017 13.6 35.2817 13.6C34.3617 13.6 33.4917 13.45 32.6717 13.15C31.8717 12.85 31.1717 12.43 30.5717 11.89C29.9717 11.37 29.4917 10.76 29.1317 10.06C28.7917 9.34 28.6217 8.57 28.6217 7.75C28.6217 6.95 28.7917 6.2 29.1317 5.5C29.4917 4.8 29.9717 4.19 30.5717 3.67C31.1717 3.15 31.8717 2.74 32.6717 2.44C33.4917 2.12 34.3617 1.96 35.2817 1.96C36.2017 1.96 37.0717 2.12 37.8917 2.44C38.7117 2.74 39.4317 3.15 40.0517 3.67C40.6517 4.19 41.1317 4.8 41.4917 5.5C41.8517 6.2 42.0317 6.95 42.0317 7.75ZM38.9117 7.75C38.9117 6.85 38.5617 6.09 37.8617 5.47C37.1617 4.83 36.3017 4.51 35.2817 4.51C34.3017 4.51 33.4617 4.83 32.7617 5.47C32.0817 6.09 31.7417 6.85 31.7417 7.75C31.7417 8.67 32.0817 9.45 32.7617 10.09C33.4617 10.71 34.3017 11.02 35.2817 11.02C36.3017 11.02 37.1617 10.71 37.8617 10.09C38.5617 9.45 38.9117 8.67 38.9117 7.75ZM33.7217 22.42H36.8717V27.01H50.1617V29.56H33.7217V22.42ZM33.6917 17.05H32.8517L26.6117 17.08V14.71H31.7117C32.7917 14.71 33.9717 14.69 35.2517 14.65C36.5317 14.61 37.8017 14.55 39.0617 14.47C40.3017 14.41 41.4717 14.34 42.5717 14.26C43.6917 14.16 44.6417 14.06 45.4217 13.96V16.3C44.5217 16.42 43.2917 16.55 41.7317 16.69C40.1717 16.81 38.5617 16.9 36.9017 16.96V20.98H33.6917V17.05ZM76.0034 11.17H80.1134V13.72H76.0034V28.69H72.9134V1.9H76.0034V11.17ZM56.1734 22.69L54.1934 20.62C55.6534 19.96 57.0034 19.12 58.2434 18.1C59.5034 17.08 60.6034 15.94 61.5434 14.68C62.4834 13.4 63.2334 12.03 63.7934 10.57C64.3734 9.11 64.7134 7.61 64.8134 6.07H56.0234V3.46H68.3534C68.3334 5.64 68.0334 7.7 67.4534 9.64C66.8934 11.58 66.0934 13.37 65.0534 15.01C63.9934 16.65 62.7134 18.12 61.2134 19.42C59.7134 20.72 58.0334 21.81 56.1734 22.69ZM88.6752 2.44C89.6352 2.44 90.5352 2.62 91.3752 2.98C92.2352 3.34 92.9852 3.83 93.6252 4.45C94.2652 5.05 94.7752 5.77 95.1552 6.61C95.5352 7.43 95.7252 8.3 95.7252 9.22C95.7252 10.16 95.5352 11.04 95.1552 11.86C94.7752 12.68 94.2652 13.39 93.6252 13.99C92.9852 14.61 92.2352 15.1 91.3752 15.46C90.5352 15.8 89.6352 15.97 88.6752 15.97C87.6952 15.97 86.7752 15.8 85.9152 15.46C85.0552 15.1 84.3052 14.61 83.6652 13.99C83.0252 13.39 82.5152 12.68 82.1352 11.86C81.7752 11.04 81.5952 10.16 81.5952 9.22C81.5952 8.3 81.7752 7.43 82.1352 6.61C82.5152 5.77 83.0252 5.05 83.6652 4.45C84.3052 3.83 85.0552 3.34 85.9152 2.98C86.7752 2.62 87.6952 2.44 88.6752 2.44ZM88.6752 5.11C87.5752 5.11 86.6452 5.51 85.8852 6.31C85.1252 7.11 84.7452 8.08 84.7452 9.22C84.7452 10.36 85.1252 11.33 85.8852 12.13C86.6452 12.91 87.5752 13.3 88.6752 13.3C89.7552 13.3 90.6752 12.91 91.4352 12.13C92.1952 11.33 92.5752 10.36 92.5752 9.22C92.5752 8.08 92.1952 7.11 91.4352 6.31C90.6752 5.51 89.7552 5.11 88.6752 5.11ZM100.855 17.02V1.84H103.945V17.02H100.855ZM100.525 23.89H91.1652V27.1H100.525V23.89ZM88.0152 18.43H91.1652V21.43H100.525V18.43H103.675V29.56H88.0152V18.43Z" fill="url(#paint0_linear_134_2)"/>
<defs>
<linearGradient id="paint0_linear_134_2" x1="-1" y1="15.5" x2="108" y2="15.5" gradientUnits="userSpaceOnUse">
<stop stop-color="#1D94D3"/>
<stop offset="1" stop-color="#004A8E"/>
</linearGradient>
</defs>
</svg>
