<svg width="174" height="39" viewBox="0 0 174 39" fill="none" xmlns="http://www.w3.org/2000/svg">
<rect width="174" height="39" rx="6" fill="#FEE500"/>
<path fill-rule="evenodd" clip-rule="evenodd" d="M28.5001 10C22.7007 10 18 13.7059 18 18.2765C18 21.1191 19.8181 23.625 22.5868 25.1154L21.4219 29.4577C21.319 29.8414 21.749 30.1472 22.0792 29.9249L27.1856 26.486C27.6165 26.5284 28.0545 26.5532 28.5001 26.5532C34.2989 26.5532 39 22.8474 39 18.2765C39 13.7059 34.2989 10 28.5001 10" fill="black"/>
<path d="M73.3477 15.7896C73.3477 17.0549 73.2017 18.1911 72.9097 19.1982C72.6219 20.2054 72.0972 21.1449 71.3354 22.0166C70.5737 22.8841 69.5158 23.6564 68.1616 24.3335L67.3872 23.2671C68.5636 22.6873 69.4862 22.0378 70.1548 21.3184C70.8276 20.5947 71.2995 19.8055 71.5703 18.9507C71.8411 18.0916 71.9766 17.0972 71.9766 15.9673V15.7896H73.3477ZM72.8145 16.9321H68.0791V15.7896H72.8145V16.9321ZM67.6665 20.106L67.4824 18.8872L71.9385 18.6143V19.6997L67.6665 20.106ZM76.3691 26.1108H74.96V14.6533H76.3691V26.1108ZM78.0703 20.3091H76.0073V19.1411H78.0703V20.3091ZM84.583 15.7896C84.583 17.0549 84.437 18.1911 84.145 19.1982C83.8573 20.2054 83.3325 21.1449 82.5708 22.0166C81.8091 22.8841 80.7511 23.6564 79.397 24.3335L78.6226 23.2671C79.799 22.6873 80.7215 22.0378 81.3901 21.3184C82.063 20.5947 82.5348 19.8055 82.8057 18.9507C83.0765 18.0916 83.2119 17.0972 83.2119 15.9673V15.7896H84.583ZM84.0498 16.9321H79.3145V15.7896H84.0498V16.9321ZM78.9019 20.106L78.7178 18.8872L83.1738 18.6143V19.6997L78.9019 20.106ZM87.6045 26.1108H86.1953V14.6533H87.6045V26.1108ZM89.3057 20.3091H87.2427V19.1411H89.3057V20.3091ZM95.7676 23.8193H94.3774V21.1025H95.7676V23.8193ZM95.082 15.2944C95.8945 15.2944 96.6245 15.4235 97.272 15.6816C97.9237 15.9398 98.4336 16.3037 98.8018 16.7734C99.1699 17.2432 99.354 17.7827 99.354 18.3921C99.354 19.0184 99.1699 19.5664 98.8018 20.0361C98.4336 20.5059 97.9258 20.8698 97.2783 21.1279C96.6309 21.3818 95.8988 21.5088 95.082 21.5088C94.2653 21.5088 93.5311 21.3818 92.8794 21.1279C92.2319 20.8698 91.7241 20.5059 91.356 20.0361C90.992 19.5664 90.8101 19.0184 90.8101 18.3921C90.8101 17.7827 90.992 17.2432 91.356 16.7734C91.7241 16.3037 92.2319 15.9398 92.8794 15.6816C93.5311 15.4235 94.2653 15.2944 95.082 15.2944ZM95.082 16.4307C94.5234 16.4307 94.0241 16.5111 93.584 16.6719C93.1439 16.8327 92.8011 17.0612 92.5557 17.3574C92.3145 17.6536 92.1938 17.9985 92.1938 18.3921C92.1938 18.7983 92.3145 19.1517 92.5557 19.4521C92.8011 19.7526 93.1418 19.9832 93.5776 20.144C94.0135 20.3006 94.515 20.381 95.082 20.3853C95.6491 20.381 96.1484 20.3006 96.5801 20.144C97.016 19.9832 97.3545 19.7526 97.5957 19.4521C97.8411 19.1517 97.9639 18.7983 97.9639 18.3921C97.9639 17.9985 97.8411 17.6536 97.5957 17.3574C97.3545 17.0612 97.016 16.8327 96.5801 16.6719C96.1442 16.5111 95.6449 16.4307 95.082 16.4307ZM100.344 24.7397H89.8579V23.5781H100.344V24.7397ZM114.677 24.7969H104.191V23.6353H114.677V24.7969ZM110.101 24.1304H108.71V21.3691H110.101V24.1304ZM113.427 19.1221H106.838V21.2041H105.429V18.0112H112.037V16.5767H105.41V15.4341H113.427V19.1221ZM113.7 21.7563H105.429V20.6074H113.7V21.7563ZM123.894 16.9131H116.524V15.7642H123.894V16.9131ZM125.875 24.5493H115.426V23.4004H125.875V24.5493ZM124.548 17.0654C124.548 17.7637 124.539 18.354 124.522 18.8364C124.51 19.3188 124.474 19.8796 124.415 20.5186C124.36 21.1533 124.266 21.8452 124.135 22.5942L122.694 22.4736C122.838 21.7712 122.942 21.1089 123.005 20.4868C123.073 19.8647 123.113 19.3083 123.126 18.8174C123.139 18.3223 123.145 17.7383 123.145 17.0654V15.7642H124.548V17.0654ZM136.208 22.9561H134.793V14.666H136.208V22.9561ZM136.532 25.9141H128.617V24.7588H136.532V25.9141ZM130.039 25.2095H128.617V22.1182H130.039V25.2095ZM129.956 15.415C130.536 15.415 131.061 15.5378 131.53 15.7832C132.004 16.0286 132.375 16.3693 132.641 16.8052C132.912 17.241 133.047 17.7319 133.047 18.2778C133.047 18.8364 132.912 19.3358 132.641 19.7759C132.375 20.2118 132.004 20.5524 131.53 20.7979C131.061 21.0433 130.536 21.166 129.956 21.166C129.376 21.166 128.852 21.0433 128.382 20.7979C127.916 20.5524 127.546 20.2118 127.271 19.7759C127 19.3358 126.865 18.8364 126.865 18.2778C126.865 17.7319 127 17.241 127.271 16.8052C127.546 16.3693 127.916 16.0286 128.382 15.7832C128.852 15.5378 129.376 15.415 129.956 15.415ZM129.956 16.6528C129.63 16.6486 129.336 16.7142 129.074 16.8496C128.816 16.9808 128.612 17.1712 128.464 17.4209C128.316 17.6706 128.242 17.9562 128.242 18.2778C128.242 18.6079 128.316 18.8999 128.464 19.1538C128.612 19.4035 128.816 19.596 129.074 19.7314C129.336 19.8626 129.63 19.9282 129.956 19.9282C130.278 19.9282 130.568 19.8626 130.826 19.7314C131.084 19.596 131.285 19.4035 131.429 19.1538C131.577 18.8999 131.651 18.6079 131.651 18.2778C131.651 17.9562 131.577 17.6706 131.429 17.4209C131.285 17.1712 131.084 16.9808 130.826 16.8496C130.568 16.7142 130.278 16.6486 129.956 16.6528Z" fill="black"/>
</svg>
