<svg width="79" height="29" viewBox="0 0 79 29" fill="none" xmlns="http://www.w3.org/2000/svg">
<path d="M11.91 17.55H5.19V8.46H18.45V4.59H5.19V2.1H21.78V10.83H8.49V15.06H22.41V17.55H15.24V22.68H26.22V25.26H0.75V22.68H11.91V17.55ZM43.3017 21.75C43.5617 20.47 43.8117 19.12 44.0517 17.7C44.2917 16.28 44.5017 14.85 44.6817 13.41C44.8417 11.97 44.9717 10.55 45.0717 9.15C45.1917 7.73 45.2517 6.38 45.2517 5.1H32.1717V2.49H48.5817C48.5617 6.03 48.3417 9.46 47.9217 12.78C47.5017 16.1 46.9917 19.09 46.3917 21.75H53.1717V24.36H27.8217V21.75H43.3017ZM62.6034 1.65C63.5834 1.65 64.5034 1.83 65.3634 2.19C66.2234 2.55 66.9834 3.04 67.6434 3.66C68.2834 4.28 68.7934 5.02 69.1734 5.88C69.5534 6.74 69.7534 7.68 69.7734 8.7C69.7534 9.72 69.5534 10.66 69.1734 11.52C68.7934 12.38 68.2834 13.12 67.6434 13.74C66.9834 14.38 66.2234 14.88 65.3634 15.24C64.5034 15.58 63.5834 15.75 62.6034 15.75C61.6034 15.75 60.6634 15.58 59.7834 15.24C58.9234 14.88 58.1634 14.38 57.5034 13.74C56.8434 13.12 56.3234 12.38 55.9434 11.52C55.5834 10.66 55.4034 9.72 55.4034 8.7C55.4034 7.68 55.5834 6.74 55.9434 5.88C56.3234 5.02 56.8434 4.28 57.5034 3.66C58.1634 3.04 58.9234 2.55 59.7834 2.19C60.6634 1.83 61.6034 1.65 62.6034 1.65ZM62.6034 4.35C61.4634 4.35 60.5034 4.78 59.7234 5.64C58.9434 6.48 58.5534 7.5 58.5534 8.7C58.5534 9.92 58.9434 10.95 59.7234 11.79C60.5034 12.61 61.4634 13.02 62.6034 13.02C63.7234 13.02 64.6634 12.61 65.4234 11.79C66.2034 10.95 66.5934 9.92 66.5934 8.7C66.5934 7.5 66.2034 6.48 65.4234 5.64C64.6634 4.78 63.7234 4.35 62.6034 4.35ZM74.8434 21.21V0.84H77.9334V21.21H74.8434ZM62.1834 19.71H65.3334V26.01H78.6234V28.56H62.1834V19.71Z" fill="url(#paint0_linear_135_3)"/>
<defs>
<linearGradient id="paint0_linear_135_3" x1="0" y1="14.5" x2="82" y2="14.5" gradientUnits="userSpaceOnUse">
<stop stop-color="#1D94D3"/>
<stop offset="1" stop-color="#004A8E"/>
</linearGradient>
</defs>
</svg>
