<svg width="39" height="31" viewBox="0 0 39 31" fill="none" xmlns="http://www.w3.org/2000/svg">
<rect x="0.780156" y="0.62" width="37.2" height="29.76" rx="5.58" fill="white" stroke="black" stroke-width="1.24"/>
<path d="M24.6413 17.7842C25.842 16.1458 26.3797 14.1144 26.147 12.0965C25.9143 10.0786 24.9282 8.223 23.3861 6.9009C21.844 5.57881 19.8595 4.88773 17.8297 4.96594C15.8 5.04415 13.8746 5.88588 12.4388 7.32273C11.0029 8.75957 10.1626 10.6856 10.0858 12.7154C10.0091 14.7452 10.7016 16.7292 12.0248 18.2704C13.348 19.8115 15.2043 20.7963 17.2224 21.0275C19.2404 21.2588 21.2714 20.7196 22.909 19.5177H22.9078C22.9441 19.5673 22.9846 19.6149 23.0293 19.6603L27.8033 24.4343C28.0358 24.667 28.3512 24.7978 28.6801 24.7979C29.0091 24.798 29.3246 24.6675 29.5573 24.435C29.7899 24.2025 29.9207 23.887 29.9208 23.5581C29.9209 23.2292 29.7904 22.9137 29.5579 22.681L24.7839 17.907C24.7396 17.8621 24.6919 17.8219 24.6413 17.7842ZM24.9612 13.0177C24.9612 13.9133 24.7848 14.8001 24.442 15.6276C24.0993 16.455 23.597 17.2068 22.9637 17.8401C22.3304 18.4734 21.5785 18.9758 20.7511 19.3185C19.9237 19.6613 19.0368 19.8377 18.1412 19.8377C17.2456 19.8377 16.3587 19.6613 15.5313 19.3185C14.7039 18.9758 13.952 18.4734 13.3187 17.8401C12.6854 17.2068 12.1831 16.455 11.8403 15.6276C11.4976 14.8001 11.3212 13.9133 11.3212 13.0177C11.3212 11.2089 12.0397 9.47419 13.3187 8.1952C14.5977 6.9162 16.3324 6.19766 18.1412 6.19766C19.95 6.19766 21.6847 6.9162 22.9637 8.1952C24.2427 9.47419 24.9612 11.2089 24.9612 13.0177Z" fill="black"/>
</svg>
