<svg width="31" height="31" viewBox="0 0 31 31" fill="none" xmlns="http://www.w3.org/2000/svg">
<path d="M30.7171 0.28286C30.8512 0.417191 30.9429 0.587966 30.9808 0.773972C31.0187 0.959978 31.0011 1.15302 30.9302 1.32911L19.6559 29.5139C19.5566 29.7621 19.3906 29.9781 19.1764 30.1381C18.9622 30.2981 18.708 30.3959 18.4418 30.4208C18.1756 30.4456 17.9077 30.3965 17.6676 30.2789C17.4275 30.1613 17.2245 29.9797 17.081 29.7542L10.9236 20.0764L1.24579 13.919C1.01972 13.7756 0.837656 13.5725 0.719697 13.3322C0.601739 13.0918 0.552468 12.8236 0.57732 12.557C0.602173 12.2905 0.700183 12.0359 0.860536 11.8216C1.02089 11.6072 1.23735 11.4413 1.48604 11.3421L29.6708 0.0716725C29.8469 0.000783752 30.04 -0.0168082 30.226 0.0210819C30.412 0.058972 30.5828 0.150674 30.7171 0.284797V0.28286ZM12.8572 19.5106L18.2067 27.9155L27.3768 4.99098L12.8572 19.5106ZM26.007 3.62117L3.08254 12.7914L11.4893 18.1389L26.007 3.62117Z" fill="#5F6368"/>
</svg>
