<svg width="154" height="55" viewBox="0 0 154 55" fill="none" xmlns="http://www.w3.org/2000/svg">
<path d="M50.6126 49.8505H0.465248V42.8233H50.6126V49.8505ZM29.6805 45.7239H21.188V32.8955H29.6805V45.7239ZM44.9908 22.9378H14.6692V31.7592H6.08702V16.2694H36.4984V11.1261H5.99731V4.27829H44.9908V22.9378ZM46.2767 35.1681H6.08702V28.2306H46.2767V35.1681ZM93.3739 12.5614H58.4771V5.65383H93.3739V12.5614ZM103.421 48.774H53.3936V41.8066H103.421V48.774ZM97.4407 12.5315C97.4407 16.08 97.4009 19.0005 97.3211 21.2931C97.2613 23.5857 97.0919 26.2072 96.8128 29.1576C96.5536 32.108 96.125 35.3376 95.5269 38.8462L86.7654 38.1883C87.4033 34.9388 87.8718 31.8688 88.1708 28.9782C88.4898 26.0876 88.6791 23.4661 88.739 21.1137C88.7988 18.7613 88.8287 15.9006 88.8287 12.5315V5.65383H97.4407V12.5315ZM152.402 40.1021H143.761V0.929149H152.402V40.1021ZM153.808 54.8742H115.233V47.9666H153.808V54.8742ZM123.965 50.8971H115.233V36.2147H123.965V50.8971ZM122.2 4.27829C125.011 4.27829 127.583 4.87635 129.915 6.07247C132.248 7.26859 134.072 8.93319 135.388 11.0663C136.723 13.1994 137.391 15.5816 137.391 18.2131C137.391 20.9044 136.723 23.3265 135.388 25.4795C134.072 27.6126 132.248 29.2872 129.915 30.5032C127.583 31.6994 125.011 32.2974 122.2 32.2974C119.39 32.2974 116.828 31.6994 114.515 30.5032C112.203 29.2872 110.369 27.6126 109.013 25.4795C107.678 23.3265 107.01 20.9044 107.01 18.2131C107.01 15.5816 107.678 13.1994 109.013 11.0663C110.369 8.93319 112.203 7.26859 114.515 6.07247C116.828 4.87635 119.39 4.27829 122.2 4.27829ZM122.2 11.7839C120.905 11.7441 119.738 11.9833 118.702 12.5016C117.665 13 116.858 13.7376 116.28 14.7144C115.702 15.6913 115.412 16.8575 115.412 18.2131C115.412 19.5886 115.702 20.7848 116.28 21.8015C116.858 22.7982 117.665 23.5458 118.702 24.0442C119.738 24.5426 120.905 24.7918 122.2 24.7918C123.476 24.7918 124.613 24.5426 125.609 24.0442C126.626 23.5458 127.423 22.7982 128.002 21.8015C128.58 20.7848 128.869 19.5886 128.869 18.2131C128.869 16.8575 128.58 15.6913 128.002 14.7144C127.423 13.7376 126.626 13 125.609 12.5016C124.613 11.9833 123.476 11.7441 122.2 11.7839Z" fill="white"/>
</svg>
