<svg width="206" height="56" viewBox="0 0 206 56" fill="none" xmlns="http://www.w3.org/2000/svg">
<path d="M22.6234 43.212H14.0412V34.3308H22.6234V43.212ZM46.8747 55.7115H38.3225V0.809537H46.8747V55.7115ZM3.81439 39.9526C10.393 39.9127 16.1643 39.7931 21.1282 39.5938C26.1121 39.3944 30.9065 38.9957 35.5116 38.3976L36.0498 44.7371C30.8268 45.674 25.4642 46.2721 19.962 46.5313C14.4798 46.7904 8.40948 46.92 1.75108 46.92L0.644666 39.9526H3.81439ZM34.9434 13.4884H1.72117V6.76024H34.9434V13.4884ZM18.3173 15.3125C21.0086 15.3125 23.4108 15.7511 25.524 16.6282C27.6571 17.5054 29.3117 18.7314 30.4879 20.3063C31.6641 21.8613 32.2522 23.6554 32.2522 25.6888C32.2522 27.7023 31.6641 29.4865 30.4879 31.0415C29.3117 32.5964 27.6571 33.8125 25.524 34.6897C23.4108 35.5668 21.0086 36.0054 18.3173 36.0054C15.646 36.0054 13.2637 35.5768 11.1705 34.7196C9.07732 33.8424 7.44262 32.6263 6.26643 31.0714C5.09025 29.4965 4.50216 27.7023 4.50216 25.6888C4.50216 23.6554 5.09025 21.8613 6.26643 20.3063C7.44262 18.7314 9.07732 17.5054 11.1705 16.6282C13.2637 15.7511 15.646 15.3125 18.3173 15.3125ZM18.3173 21.8015C17.201 21.8015 16.2241 21.951 15.3869 22.25C14.5496 22.5291 13.8917 22.9577 13.4133 23.5358C12.9348 24.114 12.6956 24.8316 12.6956 25.6888C12.6956 26.5261 12.9348 27.2338 13.4133 27.812C13.8917 28.3702 14.5496 28.7988 15.3869 29.0978C16.2241 29.3769 17.201 29.5164 18.3173 29.5164C19.4736 29.5164 20.4803 29.3769 21.3376 29.0978C22.2147 28.7988 22.8825 28.3702 23.3411 27.812C23.7996 27.2338 24.0288 26.5261 24.0288 25.6888C24.0288 24.8316 23.7996 24.114 23.3411 23.5358C22.8825 22.9577 22.2147 22.5291 21.3376 22.25C20.4803 21.951 19.4736 21.8015 18.3173 21.8015ZM22.7131 10.6476H14.0412V1.13847H22.7131V10.6476ZM76.0601 41.1487H67.4181V29.0978H76.0601V41.1487ZM100.222 42.285H91.6096V0.929149H100.222V42.285ZM101.388 54.8742H59.8526V47.9666H101.388V54.8742ZM68.4946 49.7608H59.8526V38.3378H68.4946V49.7608ZM53.1843 24.8815C60.6999 24.7818 67.1589 24.6422 72.5614 24.4628C77.9838 24.2635 83.2169 23.8448 88.2605 23.2069L88.7091 29.3669C83.4063 30.264 77.8543 30.872 72.0531 31.191C66.2718 31.51 60.3112 31.6595 54.1711 31.6395L53.1843 24.8815ZM93.4935 38.3677H81.3828V32.5665H93.4935V38.3677ZM70.9766 2.66352C73.5881 2.64359 75.9405 3.06223 78.0337 3.91945C80.1468 4.75674 81.7915 5.93292 82.9677 7.44801C84.1439 8.94316 84.732 10.6476 84.732 12.5614C84.732 14.4952 84.1439 16.1996 82.9677 17.6748C81.7915 19.1301 80.1568 20.2664 78.0636 21.0838C75.9903 21.9011 73.628 22.3098 70.9766 22.3098C68.2853 22.3098 65.893 21.9011 63.7998 21.0838C61.7066 20.2664 60.0719 19.1301 58.8957 17.6748C57.7196 16.1996 57.1315 14.4952 57.1315 12.5614C57.1315 10.6476 57.7196 8.93319 58.8957 7.4181C60.0719 5.88308 61.7066 4.7069 63.7998 3.88955C65.893 3.05226 68.2853 2.64359 70.9766 2.66352ZM70.9766 8.91325C69.8402 8.91325 68.8335 9.0528 67.9564 9.3319C67.0991 9.59106 66.4413 9.99973 65.9828 10.5579C65.5242 11.1161 65.295 11.7839 65.295 12.5614C65.295 13.319 65.5242 13.9768 65.9828 14.535C66.4413 15.0733 67.0991 15.482 67.9564 15.761C68.8335 16.0202 69.8402 16.1498 70.9766 16.1498C72.073 16.1498 73.0399 16.0202 73.8772 15.761C74.7144 15.482 75.3623 15.0733 75.8209 14.535C76.2993 13.9768 76.5385 13.319 76.5385 12.5614C76.5385 11.7839 76.2993 11.1161 75.8209 10.5579C75.3424 9.99973 74.6845 9.59106 73.8473 9.3319C73.0299 9.0528 72.073 8.91325 70.9766 8.91325ZM149.831 55.6218H141.189V0.809537H149.831V55.6218ZM157.217 28.5296H147.588V21.4725H157.217V28.5296ZM135.029 6.3715C135.029 12.2126 134.231 17.5752 132.637 22.4593C131.062 27.3235 128.44 31.7891 124.772 35.8559C121.124 39.9227 116.29 43.4413 110.269 46.4116L105.425 39.8629C110.289 37.3909 114.266 34.6398 117.356 31.6096C120.466 28.5595 122.779 25.1008 124.294 21.2333C125.829 17.3658 126.596 12.9402 126.596 7.95636V6.3715H135.029ZM130.932 13.3987H108.654V6.3715H130.932V13.3987ZM205.331 30.3836H196.689V0.809537H205.331V30.3836ZM176.773 37.2314H196.719V32.6563H205.331V55.1732H168.311V32.6563H176.773V37.2314ZM196.719 48.2357V43.8998H176.773V48.2357H196.719ZM175.129 2.99246C177.98 2.99246 180.561 3.55065 182.874 4.66703C185.186 5.76347 187 7.31843 188.316 9.3319C189.652 11.3254 190.32 13.5981 190.32 16.1498C190.32 18.5819 189.652 20.7947 188.316 22.7883C187 24.7619 185.186 26.3068 182.874 27.4232C180.561 28.5197 177.98 29.0878 175.129 29.1277C172.278 29.0878 169.696 28.5197 167.384 27.4232C165.071 26.3068 163.247 24.7619 161.912 22.7883C160.596 20.7947 159.938 18.5819 159.938 16.1498C159.938 13.5981 160.596 11.3254 161.912 9.3319C163.247 7.31843 165.071 5.76347 167.384 4.66703C169.696 3.55065 172.278 2.99246 175.129 2.99246ZM175.129 10.1393C173.793 10.1393 172.607 10.3785 171.57 10.857C170.554 11.3354 169.756 12.0232 169.178 12.9203C168.62 13.8173 168.341 14.8939 168.341 16.1498C168.341 17.3858 168.62 18.4423 169.178 19.3195C169.756 20.1967 170.554 20.8645 171.57 21.323C172.607 21.7815 173.793 22.0307 175.129 22.0706C176.445 22.0307 177.601 21.7815 178.598 21.323C179.614 20.8645 180.402 20.1967 180.96 19.3195C181.518 18.4423 181.797 17.3858 181.797 16.1498C181.797 14.8939 181.508 13.8173 180.93 12.9203C180.372 12.0232 179.594 11.3354 178.598 10.857C177.601 10.3785 176.445 10.1393 175.129 10.1393Z" fill="white"/>
</svg>
